<svg width="17" height="15" viewBox="0 0 17 15" fill="none" xmlns="http://www.w3.org/2000/svg">
<path d="M15.5833 0.0625H1.41663C1.13483 0.0625 0.864582 0.174442 0.665325 0.373699C0.466068 0.572957 0.354126 0.843208 0.354126 1.125V10.7229C0.355017 10.8605 0.383371 10.9966 0.437525 11.1231C0.49168 11.2497 0.570547 11.3641 0.669502 11.4598C0.768458 11.5554 0.885512 11.6304 1.0138 11.6802C1.1421 11.73 1.27905 11.7538 1.41663 11.75H3.54163V14.5833C3.5405 14.6481 3.5579 14.7119 3.59178 14.7671C3.62567 14.8223 3.67462 14.8667 3.73288 14.895C3.7867 14.9298 3.84942 14.9483 3.9135 14.9483C3.97758 14.9483 4.0403 14.9298 4.09413 14.895L8.61329 11.75H15.5833C15.8651 11.75 16.1353 11.6381 16.3346 11.4388C16.5338 11.2395 16.6458 10.9693 16.6458 10.6875V1.125C16.6458 0.843208 16.5338 0.572957 16.3346 0.373699C16.1353 0.174442 15.8651 0.0625 15.5833 0.0625ZM13.4583 6.08333C13.4583 6.29348 13.396 6.4989 13.2792 6.67363C13.1625 6.84835 12.9965 6.98454 12.8024 7.06496C12.6082 7.14537 12.3946 7.16642 12.1885 7.12542C11.9824 7.08442 11.7931 6.98323 11.6445 6.83463C11.4959 6.68604 11.3947 6.49672 11.3537 6.29062C11.3127 6.08451 11.3338 5.87088 11.4142 5.67673C11.4946 5.48259 11.6308 5.31665 11.8055 5.1999C11.9802 5.08315 12.1856 5.02083 12.3958 5.02083C12.6776 5.02083 12.9478 5.13278 13.1471 5.33203C13.3463 5.53129 13.4583 5.80154 13.4583 6.08333ZM3.54163 6.08333C3.54163 5.87319 3.60394 5.66777 3.72069 5.49304C3.83744 5.31831 4.00338 5.18213 4.19752 5.10171C4.39167 5.02129 4.6053 5.00025 4.81141 5.04125C5.01751 5.08225 5.20683 5.18344 5.35543 5.33203C5.50402 5.48063 5.60521 5.66995 5.64621 5.87605C5.68721 6.08215 5.66617 6.29579 5.58575 6.48993C5.50533 6.68408 5.36915 6.85002 5.19442 6.96677C5.01969 7.08352 4.81427 7.14583 4.60413 7.14583C4.32233 7.14583 4.05208 7.03389 3.85282 6.83463C3.65357 6.63538 3.54163 6.36513 3.54163 6.08333ZM7.43746 6.08333C7.43746 5.87319 7.49977 5.66777 7.61652 5.49304C7.73327 5.31831 7.89921 5.18213 8.09336 5.10171C8.2875 5.02129 8.50114 5.00025 8.70724 5.04125C8.91335 5.08225 9.10267 5.18344 9.25126 5.33203C9.39985 5.48063 9.50105 5.66995 9.54204 5.87605C9.58304 6.08215 9.562 6.29579 9.48158 6.48993C9.40116 6.68408 9.26498 6.85002 9.09025 6.96677C8.91552 7.08352 8.7101 7.14583 8.49996 7.14583C8.21817 7.14583 7.94792 7.03389 7.74866 6.83463C7.5494 6.63538 7.43746 6.36513 7.43746 6.08333Z" fill="white"/>
</svg>
