<svg width="18" height="16" viewBox="0 0 18 16" fill="none" xmlns="http://www.w3.org/2000/svg">
<path d="M2 4C2 3.54037 2.09053 3.08525 2.26642 2.66061C2.44231 2.23597 2.70012 1.85013 3.02513 1.52513C3.35013 1.20012 3.73597 0.942313 4.16061 0.766422C4.58525 0.59053 5.04037 0.5 5.5 0.5C5.95963 0.5 6.41475 0.59053 6.83939 0.766422C7.26403 0.942313 7.64987 1.20012 7.97487 1.52513C8.29988 1.85013 8.55769 2.23597 8.73358 2.66061C8.90947 3.08525 9 3.54037 9 4C9 4.45963 8.90947 4.91475 8.73358 5.33939C8.55769 5.76403 8.29988 6.14987 7.97487 6.47487C7.64987 6.79988 7.26403 7.05769 6.83939 7.23358C6.41475 7.40947 5.95963 7.5 5.5 7.5C5.04037 7.5 4.58525 7.40947 4.16061 7.23358C3.73597 7.05769 3.35013 6.79988 3.02513 6.47487C2.70012 6.14987 2.44231 5.76403 2.26642 5.33939C2.09053 4.91475 2 4.45963 2 4ZM0 14.5C0 11.4625 2.4625 9 5.5 9C8.5375 9 11 11.4625 11 14.5V14.6875C11 15.4125 10.4125 16 9.6875 16H1.3125C0.5875 16 0 15.4125 0 14.6875V14.5ZM13.5 2C14.2956 2 15.0587 2.31607 15.6213 2.87868C16.1839 3.44129 16.5 4.20435 16.5 5C16.5 5.79565 16.1839 6.55871 15.6213 7.12132C15.0587 7.68393 14.2956 8 13.5 8C12.7044 8 11.9413 7.68393 11.3787 7.12132C10.8161 6.55871 10.5 5.79565 10.5 5C10.5 4.20435 10.8161 3.44129 11.3787 2.87868C11.9413 2.31607 12.7044 2 13.5 2ZM13.5 9.5C15.9844 9.5 18 11.5156 18 14V14.7C18 15.4187 17.4188 16 16.7 16H12.175C12.3813 15.6094 12.5 15.1625 12.5 14.6875V14.5C12.5 12.8906 11.9563 11.4094 11.0469 10.2281C11.7531 9.76875 12.5969 9.5 13.5 9.5Z" fill="white"/>
</svg>
