<svg width="20" height="14" viewBox="0 0 20 14" fill="none" xmlns="http://www.w3.org/2000/svg">
<path d="M7 0C3.134 0 0 3.134 0 7C0 10.866 3.134 14 7 14H13C16.866 14 20 10.866 20 7C20 3.134 16.866 0 13 0H7ZM6.125 4C6.47 4 6.75 4.28 6.75 4.625V6.5H8.375C8.54076 6.5 8.69973 6.56585 8.81694 6.68306C8.93415 6.80027 9 6.95924 9 7.125C9 7.29076 8.93415 7.44973 8.81694 7.56694C8.69973 7.68415 8.54076 7.75 8.375 7.75H6.75V9.375C6.75 9.54076 6.68415 9.69973 6.56694 9.81694C6.44973 9.93415 6.29076 10 6.125 10C5.95924 10 5.80027 9.93415 5.68306 9.81694C5.56585 9.69973 5.5 9.54076 5.5 9.375V7.75H3.625C3.45924 7.75 3.30027 7.68415 3.18306 7.56694C3.06585 7.44973 3 7.29076 3 7.125C3 6.95924 3.06585 6.80027 3.18306 6.68306C3.30027 6.56585 3.45924 6.5 3.625 6.5H5.5V4.625C5.5 4.28 5.78 4 6.125 4ZM14 8.75C14 9.08152 13.8683 9.39946 13.6339 9.63388C13.3995 9.8683 13.0815 10 12.75 10C12.4185 10 12.1005 9.8683 11.8661 9.63388C11.6317 9.39946 11.5 9.08152 11.5 8.75C11.5 8.41848 11.6317 8.10054 11.8661 7.86612C12.1005 7.6317 12.4185 7.5 12.75 7.5C13.0815 7.5 13.3995 7.6317 13.6339 7.86612C13.8683 8.10054 14 8.41848 14 8.75ZM14.75 6.5C14.4185 6.5 14.1005 6.3683 13.8661 6.13388C13.6317 5.89946 13.5 5.58152 13.5 5.25C13.5 4.91848 13.6317 4.60054 13.8661 4.36612C14.1005 4.1317 14.4185 4 14.75 4C15.0815 4 15.3995 4.1317 15.6339 4.36612C15.8683 4.60054 16 4.91848 16 5.25C16 5.58152 15.8683 5.89946 15.6339 6.13388C15.3995 6.3683 15.0815 6.5 14.75 6.5Z" fill="white"/>
</svg>
