<svg width="18" height="18" viewBox="0 0 18 18" fill="none" xmlns="http://www.w3.org/2000/svg">
<path fill-rule="evenodd" clip-rule="evenodd" d="M8.29298 0.293031C8.48051 0.105559 8.73482 0.000244141 8.99998 0.000244141C9.26514 0.000244141 9.51945 0.105559 9.70698 0.293031L15.707 6.29303L17.707 8.29303C17.8891 8.48163 17.9899 8.73423 17.9877 8.99643C17.9854 9.25863 17.8802 9.50944 17.6948 9.69485C17.5094 9.88026 17.2586 9.98543 16.9964 9.9877C16.7342 9.98998 16.4816 9.88919 16.293 9.70703L16 9.41403V16C16 16.5305 15.7893 17.0392 15.4142 17.4142C15.0391 17.7893 14.5304 18 14 18H11C10.7348 18 10.4804 17.8947 10.2929 17.7071C10.1053 17.5196 9.99998 17.2652 9.99998 17V14H7.99998V17C7.99998 17.2652 7.89462 17.5196 7.70709 17.7071C7.51955 17.8947 7.2652 18 6.99998 18H3.99998C3.46955 18 2.96084 17.7893 2.58577 17.4142C2.21069 17.0392 1.99998 16.5305 1.99998 16V9.41403L1.70698 9.70703C1.51838 9.88919 1.26578 9.98998 1.00358 9.9877C0.741382 9.98543 0.490569 9.88026 0.305161 9.69485C0.119753 9.50944 0.0145843 9.25863 0.0123059 8.99643C0.0100274 8.73423 0.110822 8.48163 0.29298 8.29303L2.29298 6.29303L8.29298 0.293031Z" fill="white"/>
</svg>
