<svg width="20" height="16" viewBox="0 0 20 16" fill="none" xmlns="http://www.w3.org/2000/svg">
<path d="M4.34303 0.938015C4.43601 1.03089 4.50976 1.14118 4.56009 1.26257C4.61041 1.38397 4.63632 1.5141 4.63632 1.64551C4.63632 1.77693 4.61041 1.90706 4.56009 2.02846C4.50976 2.14985 4.43601 2.26014 4.34303 2.35301C2.84247 3.85383 1.99948 5.88922 1.99948 8.01152C1.99948 10.1338 2.84247 12.1692 4.34303 13.67C4.43854 13.7623 4.51472 13.8726 4.56713 13.9946C4.61954 14.1166 4.64713 14.2478 4.64828 14.3806C4.64943 14.5134 4.62413 14.6451 4.57385 14.768C4.52357 14.8909 4.44932 15.0025 4.35542 15.0964C4.26153 15.1903 4.14988 15.2646 4.02698 15.3148C3.90409 15.3651 3.77241 15.3904 3.63963 15.3893C3.50685 15.3881 3.37563 15.3605 3.25362 15.3081C3.13162 15.2557 3.02128 15.1795 2.92903 15.084C-0.977971 11.178 -0.977971 4.84402 2.92903 0.938015C3.11656 0.750544 3.37087 0.645228 3.63603 0.645228C3.90119 0.645228 4.1555 0.750544 4.34303 0.938015ZM17.075 0.938015C20.981 4.84502 20.981 11.178 17.075 15.084C16.8875 15.2717 16.6332 15.3771 16.3679 15.3772C16.1026 15.3773 15.8482 15.272 15.6605 15.0845C15.4729 14.897 15.3674 14.6426 15.3673 14.3774C15.3672 14.1121 15.4725 13.8577 15.66 13.67C17.1606 12.1692 18.0036 10.1338 18.0036 8.01152C18.0036 5.88922 17.1606 3.85383 15.66 2.35301C15.4724 2.16537 15.367 1.91088 15.367 1.64551C15.367 1.38015 15.4724 1.12566 15.66 0.938015C15.8477 0.750374 16.1022 0.644959 16.3675 0.644958C16.6329 0.644958 16.8874 0.750374 17.075 0.938015ZM7.31003 3.81201C7.4975 3.99954 7.60282 4.25385 7.60282 4.51901C7.60282 4.78418 7.4975 5.03849 7.31003 5.22601C6.94598 5.59003 6.6572 6.02218 6.46018 6.4978C6.26315 6.97343 6.16175 7.4832 6.16175 7.99801C6.16175 8.51283 6.26315 9.0226 6.46018 9.49823C6.6572 9.97385 6.94598 10.406 7.31003 10.77C7.40287 10.8629 7.47651 10.9732 7.52673 11.0946C7.57695 11.2159 7.60278 11.346 7.60273 11.4774C7.60269 11.6087 7.57677 11.7388 7.52646 11.8601C7.47615 11.9814 7.40244 12.0917 7.30953 12.1845C7.21662 12.2774 7.10633 12.351 6.98496 12.4012C6.8636 12.4514 6.73352 12.4773 6.60218 12.4772C6.47083 12.4772 6.34077 12.4513 6.21944 12.4009C6.09811 12.3506 5.98787 12.2769 5.89503 12.184C4.78486 11.0738 4.16117 9.56806 4.16117 7.99801C4.16117 6.42797 4.78486 4.92222 5.89503 3.81201C5.9879 3.71904 6.09819 3.64528 6.21959 3.59495C6.34099 3.54463 6.47111 3.51873 6.60253 3.51873C6.73394 3.51873 6.86407 3.54463 6.98547 3.59495C7.10687 3.64528 7.21716 3.71904 7.31003 3.81201ZM14.268 3.81201C15.3782 4.92222 16.0019 6.42797 16.0019 7.99801C16.0019 9.56806 15.3782 11.0738 14.268 12.184C14.0794 12.3662 13.8268 12.467 13.5646 12.4647C13.3024 12.4624 13.0516 12.3572 12.8662 12.1718C12.6808 11.9864 12.5756 11.7356 12.5734 11.4734C12.5711 11.2112 12.6719 10.9586 12.854 10.77C13.2181 10.406 13.5069 9.97385 13.7039 9.49823C13.9009 9.0226 14.0023 8.51283 14.0023 7.99801C14.0023 7.4832 13.9009 6.97343 13.7039 6.4978C13.5069 6.02218 13.2181 5.59003 12.854 5.22601C12.6719 5.03741 12.5711 4.78481 12.5734 4.52261C12.5756 4.26042 12.6808 4.0096 12.8662 3.8242C13.0516 3.63879 13.3024 3.53362 13.5646 3.53134C13.8268 3.52906 14.0794 3.62986 14.268 3.81201ZM10.082 6.58201C10.4799 6.58201 10.8614 6.74005 11.1427 7.02135C11.424 7.30266 11.582 7.68419 11.582 8.08201C11.582 8.47984 11.424 8.86137 11.1427 9.14268C10.8614 9.42398 10.4799 9.58201 10.082 9.58201C9.68421 9.58201 9.30267 9.42398 9.02137 9.14268C8.74006 8.86137 8.58203 8.47984 8.58203 8.08201C8.58203 7.68419 8.74006 7.30266 9.02137 7.02135C9.30267 6.74005 9.68421 6.58201 10.082 6.58201Z" fill="white"/>
</svg>
