<svg width="22" height="20" viewBox="0 0 22 20" fill="none" xmlns="http://www.w3.org/2000/svg">
<path d="M10 9V11H8V9H10Z" fill="white"/>
<path fill-rule="evenodd" clip-rule="evenodd" d="M5.48004 0C5.18027 3.73977e-05 4.88435 0.0674589 4.61415 0.197278C4.34395 0.327098 4.10639 0.515995 3.91904 0.75L0.869038 4.563C0.0830383 5.545 0.783038 7 2.04004 7H3.00004V14C3.00004 14.5304 3.21075 15.0391 3.58582 15.4142C3.9609 15.7893 4.46961 16 5.00004 16H13C13.5305 16 14.0392 15.7893 14.4143 15.4142C14.7893 15.0391 15 14.5304 15 14V7H17V15C17 15.2652 17.1054 15.5196 17.2929 15.7071C17.4805 15.8946 17.7348 16 18 16C18.2653 16 18.5196 15.8946 18.7071 15.7071C18.8947 15.5196 19 15.2652 19 15V7H19.96C21.218 7 21.917 5.545 21.131 4.563L18.081 0.751C17.8938 0.516811 17.6563 0.327724 17.3861 0.197729C17.1159 0.0677338 16.8199 0.000157395 16.52 0H5.48004ZM7.00004 7C6.73482 7 6.48047 7.10536 6.29293 7.29289C6.1054 7.48043 6.00004 7.73478 6.00004 8V12C6.00004 12.2652 6.1054 12.5196 6.29293 12.7071C6.48047 12.8946 6.73482 13 7.00004 13H11C11.2653 13 11.5196 12.8946 11.7071 12.7071C11.8947 12.5196 12 12.2652 12 12V8C12 7.73478 11.8947 7.48043 11.7071 7.29289C11.5196 7.10536 11.2653 7 11 7H7.00004Z" fill="white"/>
</svg>
