<svg width="11" height="16" viewBox="0 0 11 16" fill="none" xmlns="http://www.w3.org/2000/svg">
<path d="M0.75 3.90833C0.75 3.02167 0.75 2.57833 0.922583 2.2395C1.07438 1.94159 1.31659 1.69938 1.6145 1.54758C1.95333 1.375 2.39667 1.375 3.28333 1.375H7.71667C8.60333 1.375 9.04667 1.375 9.3855 1.54758C9.68341 1.69938 9.92562 1.94159 10.0774 2.2395C10.25 2.57833 10.25 3.02167 10.25 3.90833V14.4415C10.25 14.8262 10.25 15.0186 10.17 15.1239C10.1355 15.1697 10.0914 15.2074 10.0408 15.2345C9.99025 15.2615 9.93439 15.2773 9.87712 15.2806C9.74492 15.2885 9.585 15.1817 9.26517 14.9687L5.5 12.4583L1.73483 14.9679C1.415 15.1817 1.25508 15.2885 1.12208 15.2806C1.06495 15.2772 1.00925 15.2614 0.95882 15.2343C0.908387 15.2072 0.864423 15.1696 0.829958 15.1239C0.75 15.0186 0.75 14.8262 0.75 14.4415V3.90833Z" fill="white" stroke="white" stroke-linecap="round" stroke-linejoin="round"/>
</svg>
