<svg width="11" height="12" viewBox="0 0 11 12" fill="none" xmlns="http://www.w3.org/2000/svg">
<path d="M8.91663 11.8333C8.43051 11.8333 8.01732 11.6632 7.67704 11.3229C7.33676 10.9826 7.16663 10.5694 7.16663 10.0833C7.16663 10.025 7.18121 9.88888 7.21038 9.67499L3.11246 7.28332C2.9569 7.42916 2.77704 7.54349 2.57288 7.62632C2.36871 7.70916 2.14996 7.75038 1.91663 7.74999C1.43051 7.74999 1.01732 7.57985 0.677043 7.23957C0.336765 6.8993 0.166626 6.4861 0.166626 5.99999C0.166626 5.51388 0.336765 5.10068 0.677043 4.76041C1.01732 4.42013 1.43051 4.24999 1.91663 4.24999C2.14996 4.24999 2.36871 4.29141 2.57288 4.37424C2.77704 4.45707 2.9569 4.57121 3.11246 4.71666L7.21038 2.32499C7.19093 2.25693 7.17888 2.19141 7.17421 2.12841C7.16954 2.06541 7.16701 1.99482 7.16663 1.91666C7.16663 1.43055 7.33676 1.01735 7.67704 0.677073C8.01732 0.336795 8.43051 0.166656 8.91663 0.166656C9.40274 0.166656 9.81593 0.336795 10.1562 0.677073C10.4965 1.01735 10.6666 1.43055 10.6666 1.91666C10.6666 2.40277 10.4965 2.81596 10.1562 3.15624C9.81593 3.49652 9.40274 3.66666 8.91663 3.66666C8.68329 3.66666 8.46454 3.62524 8.26038 3.54241C8.05621 3.45957 7.87635 3.34543 7.72079 3.19999L3.62288 5.59166C3.64232 5.65971 3.65457 5.72543 3.65963 5.78882C3.66468 5.85221 3.66701 5.9226 3.66663 5.99999C3.66624 6.07738 3.6639 6.14796 3.65963 6.21174C3.65535 6.27552 3.6431 6.34105 3.62288 6.40832L7.72079 8.79999C7.87635 8.65416 8.05621 8.54002 8.26038 8.45757C8.46454 8.37513 8.68329 8.33371 8.91663 8.33332C9.40274 8.33332 9.81593 8.50346 10.1562 8.84374C10.4965 9.18402 10.6666 9.59721 10.6666 10.0833C10.6666 10.5694 10.4965 10.9826 10.1562 11.3229C9.81593 11.6632 9.40274 11.8333 8.91663 11.8333Z" fill="#5A95F9"/>
</svg>
